<svg xmlns="http://www.w3.org/2000/svg" width="850" height="369" viewBox="0 0 850 369"><defs><linearGradient id="a" x1="418.448" x2="418.448" y1="304.8" y2="114.6" gradientUnits="objectBoundingBox" spreadMethod="pad"><stop offset="0" stop-color="#697eff"/><stop offset="1" stop-color="#697eff"/></linearGradient></defs><path fill="#697eff" fill-rule="evenodd" stroke="currne" d="m34.4 342-1.2 1-8.4 2.6-1.4-.6-.5-1.4.2-.8 1.1-1 8.6-2.7 1.3.7.4.6zm30.1-12.2.6.5.4 1.5-.8 1.3-.6.4-20.6 6.2-1.5-.1-.7-.5-.4-1.4.6-1.4.7-.4 20.8-6.3zm18.1-39.9 1.4.6 4.1 4.3v1.5l-.4.7-1.4.5-1.5-.5-4.1-4.3v-1.6l.4-.6zm-9.6-.8.8.1 1.1 1.1v1.5l-4.8 4.9h-1.5l-.7-.4-.4-.7-.1-1.5 4.2-4.4zm7.4-8.2 2.9-2.9 1.4-.6.7.2 1.1 1 .1 1.6-3.3 3.5-1.4.6-.8-.1-1.1-1.1v-1.5zm-11.6-4.8 1.5.6 3.3 3.6-.1 1.5-1.1 1.1h-1.5l-.6-.4-3.4-3.7.1-1.5 1.1-1.1zm256.6 68.5.8.2.9 1.2-.2 1.6-.5.6-8.9 6.7-1.5.4-.8-.3-.9-1.2.2-1.5.5-.6 8.9-6.7zm-1.3-7.4 1 1.1-.1 1.5-1.1 1-1.6-.1-7.6-3.7-1-1.1.1-1.5.4-.7 1.5-.5zm6.9 9.9.4-.6 1.5-.6 1.4.7 3.3 8.8-.6 1.4-.7.4-.8.1-1.4-.6-3.2-8zm12.3-11.5.8-.2 1.4.6.7 1.4-.6 1.4-7.8 3.8-.7.2-1.5-.5-.6-1.4.5-1.5zM192.5 331l.7.3.7 1.4-.4 1.5-6.5 3.7-1.5.1-.7-.3-.7-1.4.4-1.5 6.5-3.6zm6.6 1.4 1.2-1 1.5.2 5.8 3.4.4 1.5-.2.7-1.2 1-1.6-.2-5.7-3.4-.4-1.5zm86.4-41.1.5.6.2 1.5-1 1.2-.8.2-28.4 2.6-27.5 3.2-26.7 3.6-25.7 4-25 4.5-24.1 4.9-23.3 5.3-22.6 5.8-1.5-.2-.6-.5-.4-1.5.8-1.3.7-.4 22.6-5.7 23.4-5.4 24.2-4.9 25-4.5 25.9-4.1 26.7-3.6 27.6-3.1 28.6-2.7zm-80.3 29.1.8.2 1 1.2-.2 1.5-5 4.3-1.5-.1-.6-.5-.4-.7.1-1.5 4.3-4zm-10.1 1.9.4.7-.1 1.5-1.1 1-.8.1-1.4-.7-3.7-4.2-.4-.7.1-1.5 1.1-1.1.8-.1 1.4.7zM154.2 266l-2.2.3-2 .8-1.8 1.4-1.4 1.8-.9 1.9-.2 2.3.2 2.2.9 2 1.4 1.8 1.8 1.4 2 .8 2.2.3 2.3-.3 1.9-.8 1.9-1.4 1.3-1.8.9-2 .3-2.2-.3-2.3-.9-1.9-1.3-1.8-1.9-1.4-1.9-.8zm-12.5 8.5.2-2.5.7-2.3 1.1-2.1 1.6-2 2-1.6 2.1-1.1 2.3-.7 2.5-.2 2.5.2 2.3.7 2.1 1.1 2 1.6 1.6 2 1.1 2.1.7 2.3.3 2.5-.3 2.5-.7 2.3-1.1 2.1-1.6 2-2 1.6-2.1 1.1-2.3.7-2.5.2-2.5-.2-2.3-.7-2.1-1.1-2-1.6-1.6-2-1.1-2.1-.7-2.3zm-10-55.1.4.7v1.5l-1.1 1.1-11 .2-.2 11.1-1.1 1.1h-1.5l-.7-.5-.5-1.4v-10.3h-10.4l-1.4-.6-.6-1.4.6-1.5 1.4-.5H116v-10.4l.5-1.5.7-.4h1.5l1.1 1.1.2 11.1h10.3zm50.5-60.5.1-.8 1.1-1.1h1.6l1.1 1.1.1 8.7 8.7.1 1.1 1.1.1.8-.1.7-1.1 1.1-8.7.2-.1 8.6-1.1 1.1h-1.6l-.6-.4-.6-1.4v-7.9l-8.6-.2-1.1-1.1-.1-.7.1-.8 1.1-1.1 8.6-.1zm147.9 167.3 1.4.5.6 1.5-.2 6.3-1.1 1.1-.7.1-1.5-.6-.5-1.4.1-6.3 1.1-1.1zm-10.5-34.5-.5-.6-.1-1.6 1-1.1.8-.2 25.2-1.3 26.8-.8 1.1 1v1.6l-1 1.1-.8.2-51.1 2.2zm-101-235.4 1.2-.1 1.1.4.9.8.5 1 .5 3-.3 1.1-.8.9-1.1.5-1.1.1-1.1-.4-.9-.8-.5-1-.6-3 .4-1.1.8-.9zm-7.8-29.1 2.3-.4 2.2.1 2.1.5 2 1 2.1 1.3 1.5 1.6 1.2 1.9.8 2.1.4 2.3-.1 2.2-.6 2.2-2.1 3.8-3 2.5.9 4.3-.4 1.2-.8.8-1 .6h-1.2l-1.1-.4-.9-.7-.5-1.1-1.6-6.5.1-.7.8-1.4 2.8-1.3 1-.9 1.5-2.5v-2.8l-1.4-2.4-2.7-1.5-1.3-.2-2.8.7-1.1.9-.9 1.1-.5 1.3-.2 1.4.6 4-.4 1.1-.9.8-1 .5h-1.2l-1.1-.5-.8-.8-.7-2-.4-2.3v-2.2l.4-2.1.9-2 1.5-2 1.6-1.6 1.9-1.1zM243.2 15l5.2 1.6 4.2 2 3.5 2.2 2.8 2.5L261 26l1.7 3 1.1 3.4.7 3.4v3.4l-.5 3.5-1.2 3.5-1.8 3.7-2.7 3.8-5.2 5.6 3.5 12.9v1l-.9 2-2 .8-1.1-.2-15.7-5.8-13.5 4.8-6.7 1.5-6.4 1-6.1.3-5.8-.1-5.5-.7-5.3-1.1-5.1-1.7-4.2-2-3.4-2.2-2.7-2.5-2.2-2.7-1.6-3-1.1-3.3-.7-3.5-.1-3.4.5-3.5 1.1-3.5 1.9-3.6 2.6-3.9 3.5-3.9 4-3.7 4.5-3.4 4.9-3 5.5-2.7 6-2.4 6.6-2 6.8-1.6 6.4-.9 6-.4 5.8.2 5.4.7zm-1.5 5.8-4.8-1.1-5-.6-5.2-.1-5.5.3-5.9.9-6.2 1.4-6 1.8-5.5 2.2-4.9 2.5-4.5 2.7-4.1 3-3.7 3.4-3.2 3.6-2.2 3.4-1.5 3.3-.7 3.1-.2 3.1.5 3 1.1 2.9 1.6 2.5 2.3 2.3 2.9 2.1 3.6 1.8 4.6 1.6 4.8 1 5 .6 5.3.1 5.6-.3 5.8-.9 6.2-1.4 14.9-5.3 12.4 4.4-2.4-9v-1.7l.9-1.4 2.8-2.5 3.2-3.7 2.3-3.4 1.5-3.3.8-3.1.1-3-.4-3.1-1.1-2.8-1.7-2.6-2.3-2.3-2.9-2.1-3.7-1.8zM654 337.3l1.5-.3 1.3.9.2 1.5-.9 1.3-6.1 3.4-1.5-.3-.5-.6-.3-.8.4-1.4zm16.2-9.5.3 1.5-.8 1.3-4.2 2.9-.7.3-1.5-.3-.9-1.2.3-1.5.5-.6 4.9-3.3 1.5.3zm-6 9.7 1.3.7 3.9 4.9-.2 1.5-1.2 1-.7.1-1.4-.8-3.8-4.9.1-1.5 1.2-1zm-210.7 8.3.8-1.1.7-2.4-.6-2.5-.9-1-2.1-1.3-1.3-.2-2.5.7-1 .8-1.3 2.2-.1 1.3.6 2.4.8 1.1 1 .8 2.5.6 1.3-.2zm5.5-3.5-.3 2.3-.9 2.1-1.4 1.9-1.9 1.5-2.1.8-2.3.3-2.3-.3-2.1-.8-2-1.5-1.4-1.9-.9-2.1-.2-2.3.2-2.4.9-2.1 1.4-1.8 2-1.5 2.1-.9 2.3-.3 2.3.3 2.1.9 1.9 1.5 1.4 1.9.9 2zm119.9 9.3.6-1.4 4.4-4.2h1.6l.6.4.6 1.5-.6 1.4-4.4 4.2h-1.6l-.6-.5zm5.9-15.2.4.7v1.5l-1.1 1.1-.8.1-1.4-.6-2.9-3-.4-.6v-1.5l1.1-1.1.8-.2 1.4.7zm11.5-2.2.8.1 1.1 1.1v1.5l-3.2 3.6-1.4.6-.8-.2-1.1-1-.1-1.6 3.3-3.5zm-.7 13 3.7 3.7.6 1.4-.1.7-1.1 1.1-1.5.1-.7-.5-3.7-3.6-.6-1.4.1-.8 1.1-1.1h1.5zm-138.1-58.3-.5-.7.1-1.5 1.1-1.1.7-.1 23.3.6 23.5 1 1 1.2-.1 1.5-1.1 1-.8.1-45.8-1.4zm298.9 32.6 1.2.9.3 1.5-1 1.2-1.5.3-20.5-5-21-4.6-21.7-4.3-22.4-3.9-23-3.6-23.7-3.2-24.4-2.8-1.4-.7-.4-1.5.7-1.3 1.5-.5 24.5 2.8 23.8 3.3 23.1 3.6 22.4 3.9 21.8 4.3 21.2 4.6zm-4.6-42.3.7.2.9 1.3-.2 1.5-5.5 4-1.5-.2-.5-.6-.4-.7.2-1.5 4.8-3.6zm3.7 1.9.7-.4 1.5.2 4 4.4.4 1.5-.7 1.4-.7.3-1.5-.1-4-4.5-.4-1.4zm2.9-5.1 1.2-.9 4.3-1 1.4.7.3 1.5-.8 1.4-.7.3-4.3 1-1.3-.8-.3-.7zm-4.4-1.4-.4-1.5 1.3-6.1 1.3-.9h.8l1.3.8.3 1.5-1.3 6.2-1.3.9h-.7zm-10.3-4.3.6-.5 1.5-.2 6.5 4.9.8 1.3-.4 1.5-.6.5-1.5.2-6.6-4.9-.7-1.3zm-92 53.8.4-.8 1.3-.7 1.5.4 3.8 6.4-.4 1.5-.6.5-.7.2-1.5-.4-3.6-5.6zm20.7-70.8.8.1 1.1 1.1.1 9.7 9.6.1 1.1 1.1.2.8-.2.7-1.1 1.1-9.6.2-.1 9.6-1.1 1.1-.8.1-.8-.1-1.1-1.1-.1-9.6-9.7-.2-1.1-1.1-.1-.7.1-.8 1.1-1.1 9.7-.1.1-9.7 1.1-1.1zm1-81.7.7-.5h1.5l1.1 1.1.2 8.7 8.6.1 1.1 1.1v1.6l-1.1 1.1-.7.1h-7.9l-.2 8.7-1.1 1.1h-1.5l-.7-.5-.5-1.4v-7.9l-8.7-.1-1.1-1.1-.1-.8.1-.8 1.1-1.1 8.7-.1V173zm53.4 45.9-2.1.2-2 .6-1.8 1-1.7 1.4-1.4 1.6-1 1.8-.5 1.9-.2 2.2.1 2.1.6 2 1 1.8 1.4 1.6 1.7 1.4 1.8 1 2 .6 2.1.2 2.1-.2 1.9-.6 1.8-1 1.7-1.3 1.4-1.7 1-1.8.6-2 .2-2.1-.3-2.2-.5-1.9-1-1.8-1.4-1.6-1.7-1.4-1.8-1-1.9-.6zm-10.4.3 2.3-1.9 2.5-1.3 2.7-.8 2.9-.3 2.9.3 2.7.8 2.4 1.3 2.3 1.9 1.9 2.3 1.4 2.5.8 2.6.2 2.9-.2 3-.8 2.7-1.4 2.5-1.9 2.2-2.3 2-2.4 1.3-2.7.8-2.9.3-2.9-.3-2.7-.8-2.5-1.3-2.3-1.9-1.9-2.3-1.4-2.5-.8-2.7-.3-3 .3-2.9.8-2.6 1.4-2.5zm90.2 118.4.2.8-.5 1.4-1.3.7h-.8l-17.3-5.3-17.8-4.9-1.2-.9-.2-.8.4-1.5 1.3-.7h.7l17.9 5 17.4 5.3zm19.2 9.2-1.5.2-11.6-3.9-.7-.3-.6-1.4.4-1.5 1.4-.6.8.1 11.5 3.8.7.3.7 1.4-.5 1.5zm-167-266.9.8-.8 1.1-.4 1.1-.1 1.1.5.8.8.5 1.1v1.2l-.4 1.1-4.1 5.6-1 .4h-1.2l-1.1-.4-.8-.9-.5-1v-1.2zm22-32.1.8-.8 1.1-.4h1.1l1.1.4.9.8.4 1.1v1.2l-.5 1.1-14.6 21.5-.8.9-1.1.4H668l-1.1-.5-.8-.8-.4-1.1v-1.1l.4-1.1zm-214.9-9.9.4 1.1-.1 1.2-5.1 21.5-.5 1-.8.8-1.1.4h-1.2l-1.1-.5-.8-.9-.4-1.1.1-1.1 5.1-21.5.5-1.1.8-.8 1.1-.4h1.2l1.1.5zm28.8 3.3-.1 1.2-.5 1-19.5 25-.9.7-1.1.4-1.2-.1-1-.5-.8-.9-.3-1.1.1-1.2.5-1 19.5-25 .8-.8 1.2-.3 1.1.1 1.1.5.7.9zm7.5 19.7 1.1.5.8.8.4 1.1v1.2l-.4 1-.8.9-19.9 13.1-1.1.4h-1.2L480 78l-.8-.8-.4-1.1V75l.4-1.1.8-.8L500 60l1-.5z"/><path fill="url(#a)" fill-rule="evenodd" d="m260.4 251.8 17.8-1.2-2.6-37.4zm15.7-54.7.9-.4 2 .3 1.4 1.5.2.9 3.8 53.8-.1 1.1-.6 1-1 .8-1.1.3-25.5 1.8-1-.1-1.6-1.2-.6-1.9 21.9-56.5zm60.5 71.3.7.9.3 1.1.8 10.7-.2 1.2-.6 1-.9.7-1.1.3-13 .9.2 6.5-.6 1-1 .7-1.1.3-1.2-.1-1-.6-.7-1-.3-1.1-.5-8.3.1-1.1.6-1 .9-.7 1.2-.3 13-1-.6-7.7.1-1.2.7-1 .9-.7 1.1-.3 1.2.1zm78.8-138.8 3.2.2 2.8.8 2.6 1.4 2.4 1.9 2.1 2.4 1.5 2.5.8 2.8.3 3v116.7l-.3 3-.9 2.7-1.4 2.6-2.1 2.4-2.4 1.9-2.6 1.3-2.9.8-3.1.3-3.2-.3-2.8-.8-2.7-1.4-2.4-1.9-2.1-2.3-1.4-2.6-.9-2.7-.2-3V144.6l.2-3 .9-2.8 1.4-2.5 2.1-2.4 2.4-1.9 2.6-1.4 2.9-.8zm0 6-2.6.3-2.3.8-2.1 1.5-1.5 1.9-.9 2.1-.3 2.4v116.7l.6 3.4 2.1 2.9 3.2 2 3.8.7 3.7-.7 3.2-2 2.1-2.9.7-3.4V144.6l-.7-3.4-2.1-3-3.1-2zm-145.3-22.5 1.6-3.4 2-2.7 2.2-2.3 2.5-1.8 3-1.3 3.3-.9 3.8-.4 4.6.1 4.3.9 3.5 1.2 2.9 1.6 2.3 1.9 1.9 2.3 1.4 2.6.9 3 .5 3.6 9.2 130.2 12.9-.9 1.2.1 1 .6.8.9.3 1.2.2 7.8-.5 1-1 .7-1.1.3-1.2-.1-1-.6-.7-1-.3-1.1-.2-3.6-13 .9-1.2-.1-1-.6-.7-1-.3-1.1-9.4-133.3-.5-2.6-.8-2.3-1.3-1.8-1.6-1.6-2.2-1.4-2.6-1-3.3-.7-3.7-.1-3.1.4-2.7.9-2.3 1.3-1.9 1.6-1.7 2.2-1.4 2.6-52.8 135.1-.6 2.4v2.4l1.5 20.2 1.6 3.5 2.9 3.1 2.7 1.5 2.7.9 2.7.6h3l44-3 1.2.1 1 .6.7.9.3 1.2 1.4 20.4 29.7-2.2v-3.7l.6-1.1.9-.7 1.1-.3 1.2.1 1 .6.7.9.4 1.2.2 6.8-.6 1-.9.7-1.1.3-35.8 2.5-1.2-.1-1-.6-.7-.9-.3-1.2-1.4-20.4-41 2.9h-3.2l-3.1-.4-3-.8-2.9-1.3-3-1.8-2.4-2.2-1.8-2.3-1.4-2.4-1-2.9-.4-3.2-1.3-18.1.3-4.7.7-2.5zm336.2 162.7.9-.6 1.2-.2 1.2.2.9.6.7 1 .2 1.2-.4 2.2-1.7 4.7-1.4 3-2.3 3.9-2.9 3.6-3.5 3.5-1 .6-1.1.1-1.2-.3-.9-.7-.6-1-.1-1.2.2-1.1 3.7-3.8 2.4-3.1 2-3.3 1.2-2.6 1.9-5.8zm-141-17.5-1.2-.3-.9-.6-.7-1-.2-1.1V140.2l-.3-4.3-.8-4.2-1.4-3.9-1.9-3.8-2.4-3.7-3.1-3.6-3.8-3.4-4-3.1-4.3-2.6-4.4-2.2-4.7-1.6-5-1.2-5.2-.8-5.6-.2-5.6.2-5.2.8-5 1.2-4.7 1.6-4.5 2.2-4.2 2.6-4.1 3.1-3.8 3.4-3 3.6-2.5 3.7-1.9 3.8-1.3 3.9-.8 4.2-.3 4.3v126l.7 6.8.9 3.6 1.4 3.4 1.8 3.4 2.3 3.2 3 3.3 3.4 3.2 7.6 5.1 4.6 2.1 4.8 1.7 5.2 1.2 5.4.8 5.8.2 5.8-.3 5.4-.7 5.1-1.2 4.9-1.7 4.6-2.2 5.4-3 1.2-.1 1.1.5.8.8.4 1.1.1 1.2-.5 1-.8.9-4.9 2.9-5.1 2.4-5.3 1.9-5.7 1.4-6.1.8-6.4.3-6.4-.3-6.1-.8-5.7-1.4-5.3-1.9-5.1-2.4-4.9-2.9-3.7-2.7-4-3.7-3.2-3.7-2.8-3.9-2.2-3.9-1.6-4.1-1.1-4.3-.8-8v-126l.2-4.5.7-4.2 1.2-4.1 1.7-4 2.1-3.8 2.7-3.7 3.3-3.7 3.8-3.6 4.6-3.4 4.8-2.9 5-2.4 5.2-1.8 5.5-1.4 5.9-.8 6.2-.3 6.2.3 5.9.8 5.5 1.4 5.2 1.8 5 2.4 4.7 2.9 4.6 3.4 3.9 3.6 3.2 3.7 2.7 3.7 2.2 3.8 1.7 4 1.2 4.1.7 4.2.2 4.5v115l-.2 1.2-.7 1-.9.6zm-2.1 5.8.9-.7 1.2-.2 1.2.2.9.7.7.9.2 1.2-.1 3.6-.6 4.4-1.2 4.3-1.6 4.1-2.2 3.9-2.8 3.9-.8.7-1.2.4-1.1-.1-1.1-.5-.7-.9-.4-1.1.1-1.2 4.7-7.7 1.4-3.4 1-3.6.8-8zm92.4-122.7v-.1Zm-33.9-26.9 4.6-3 5-2.5 5.5-2 5.9-1.6 6.5-1.1 7.1-.5h7.8l7.3.5 6.8 1 6.3 1.5 5.9 2 6 2.7 5.1 2.8 4.4 3 3.8 3.3 3.2 3.4 2.7 3.6 2.1 3.8 1.5 4.1 1.4 10-3.7 54-.7 3.1-1.1 3.1-1.7 3-2.1 3-2.8 3 2 3.3 2.8 6.4.9 3.4.3 3.2-2.2 33.3-.3 1.2-.7.9-1 .6-1.2.1-1.1-.3-.9-.7-.6-1.1-.2-1.1 2.1-30-.2-5.3-.8-3-1.3-3.1-4-6.4-.5-1-.1-1.1.3-1.1.7-.9 3.3-3.2 2.3-3.1 1.7-3.1.9-3.2.4-3.3 3.5-51.1-1.1-7.9-1.4-3.3-1.8-3.2-2.2-3-2.6-2.8-3.2-2.8-4-2.6-4.7-2.6-5.4-2.4-5.4-1.8-5.9-1.4-6.3-.9-13.9-.5-6.4.5-5.9.9-5.5 1.4-4.9 1.8-4.6 2.3-4.2 2.7-3.8 3-3.1 3-2.3 3.1-1.8 3.2-1.3 3.3-.8 3.5-1.9 27.4 36.7 2.6 1.9-26.9.4-1.2 2.2-3.2 4-2.1 7.8-.8 4.9.6 3.2.7 3.7 2 1.3 1.6.9 1.9.6 3.1-3.5 49.7-.2 1.4-.5 1-1.8 1.2-2.9 1.2-2.9.3-20.3-1.2-1.7 25 21.3 1.5 3.4 1.4 1.8 1.9.4 1 .8 3.9-3.2 42.5-2.1 3.3-1 1-2.8 1.3-2.3.5-3.1.2-4.5-.1-4.7-.9-5.1-1.9-1.6-1.1-.9-1-.7-2.6 1.9-28.5-36.7-2.6-2.1 30 .7 5.4 1.5 3.6 2 3.5 2.5 3.2 5.8 5.5 3 2.2 3.6 2.1 9 3.8 5.6 1.6 6.4 1.2 7.1.8 8.5.3 6-.2 5.7-.6 12.7-2.9 1.1.3.9.7.6 1.1.2 1.1-.4 1.1-.7 1-1 .6-3.3 1-9.1 1.9-6.1.7-6.5.2-9-.3-6.2-.6-11-2.3-4.8-1.5-8.5-3.7-4.2-2.4-3.6-2.7-6.2-6-2.4-3-2.1-3.1-2.9-6.6-1-7.1 2.4-33.3.2-1.1.8-1 1-.6 1.2-.1 42.7 3 1.1.2 1 .8.6 1 .1 1.2-2.1 30.5 2.8 1.1 5.1 1 3.8.1 2.5-.3 1.6-.5.5-.2.7-1.2 2.9-40.9-.5-1.6-.7-.3-23.8-1.7-1.1-.3-.9-.7-.6-1-.2-1.2 2.2-30.9.2-1.2.8-.9 1-.6 1.2-.1 18.5 1.3h4.3l2.4-.5 3.4-48.4-.5-1.4-.9-.9-3.8-1.1-3.6-.4-5.8.6-1.8 1.4-.6 1-2 28.6-.4 1.1-.7.9-1 .6-1.1.2-42.8-3-1.1-.3-.9-.7-.7-1-.1-1.2 2.2-30.4.6-3.9 1.2-3.5 1.6-3.4 2.1-3.3 2.7-3.2 3.3-3.2z"/></svg>