<svg xmlns="http://www.w3.org/2000/svg" width="850" height="369" viewBox="0 0 850 369"><defs><linearGradient id="a" x1="413.585" x2="413.585" y1="314.009" y2="95.601" gradientUnits="objectBoundingBox" spreadMethod="pad"><stop offset="0" stop-color="#697eff"/><stop offset="1" stop-color="#697eff"/></linearGradient></defs><path fill="#697eff" fill-rule="evenodd" d="m455.7 336 1.5 1.9.9 2 .2 2.4-.2 2.3-.9 2.1-1.5 1.9-1.8 1.5-2.1.8-2.4.3-2.3-.3-2.1-.8-1.9-1.4-1.5-2-.8-2.1-.3-2.3.3-2.4.8-2.1 1.5-1.8 1.9-1.5 2.1-.9 2.3-.3 2.4.3 2 .9zm-2.8 2.8-2.2-1.3-1.3-.1-2.4.6-1.1.8-1.2 2.2-.2 1.3.6 2.4.8 1.1 1.1.8 2.4.6 1.3-.2 2.2-1.2.8-1.1.7-2.4-.7-2.5zm-246.6-4.3 1 1.2-.2 1.5-1.2 1-1.5-.2-5.8-3.4-.4-1.5.3-.7.5-.6 1.4-.4zm124 12.6.5-.6 1.4-.6 1.4.7 3.4 8.8-.7 1.4-.6.4-.8.1-1.4-.6-3.2-8zm-5.5-2.5.7.2.9 1.2-.2 1.6-.5.6-8.9 6.7-1.5.4-.7-.3-.9-1.2.2-1.5.5-.6 8.9-6.7zm-1.4-7.4 1.1 1.1-.2 1.5-1.1 1-1.5-.1-7.7-3.7-1-1.1.1-1.5.5-.7 1.4-.5zm19.3-1.6h1.5l1.1 1 .1 1.6-1.1 1.1-7.9 3.5-1.4-.5-.5-.7-.2-.7.6-1.5zm-13.3-9.4 1.4.5.6 1.5-.1 6.3-1.1 1.1-.8.1-1.4-.6-.6-1.4.1-6.3 1.1-1.1zm-124.8-5.8.7.2 1 1.2-.1 1.5-4.3 3.9-1.5.5-.8-.2-1-1.2.2-1.5 4.3-4zm168-33.9.4.6.1 1.6-1.1 1.1-.7.2-50.3 2.2-1.5-.5-.5-.7v-1.5l1-1.2.7-.1 50.5-2.2zm452.3 55.3.7.3.6 1.4-.4 1.5-1.4.6-12.3-3.9-.7-.3-.7-1.4.5-1.5 1.4-.6zm-232.8 5.5.6-.5h1.5l4.5 4.1.6 1.4-.6 1.4-.7.4-1.5.1-4.4-4.1-.6-1.4zm-8-1.4 1.4.5.4.7v1.5l-4.9 4.9h-1.5l-.7-.5-.4-.6v-1.6l4.2-4.4zm-2.8-12.4 2.9 2.9.5 1.4-.2.8-1.1 1.1-1.5-.1-.7-.4-2.9-3-.5-1.4.2-.7 1.1-1.1h1.5zm13 1.3 1.4-.6 1.4.6.6 1.4-.5 1.4-3.5 3.3h-1.6l-.6-.4-.5-.6v-1.6zm59.1 2.5 1.5-.3 1.2.9.3 1.5-1 1.3-6.1 3.4-1.4-.3-.6-.6-.2-.8.3-1.4zm8.7.6 1.4-.4 1.4.7 3.4 4.2.4.7-.1 1.5-1.2 1-.8.1-1.3-.8-3.9-4.9.2-1.5zm7.5-10.1.3.7-.3 1.5-4.8 3.5-1.5.3-1.3-.8-.3-.7.3-1.5 4.8-3.6 1.5-.3zm-18.5-3.7.3-.8 1.3-.7 1.5.4 3.8 6.4-.4 1.5-.5.5-.8.2-1.5-.4-3.5-5.6zm-96.2-33.5.4.7-.2 1.5-1.1 1-.8.1-46.2-2.8-48.7-1.5-1.4-.6-.4-.7v-1.5l1.1-1.1.8-.1 48.7 1.5 46.4 2.8zM768 325.2l1.5-.2 17.9 5 17.3 5.3.7.3.7 1.4-.4 1.4-1.4.7h-.7l-17.3-5.3-17.8-4.9-.7-.4-.8-1.3.4-1.5zm-11-2.8.2.7-.3 1.5-1.4.8h-.7l-21.5-5.2-22.1-4.8-22.8-4.4-23.5-4.1-24.3-3.7-25-3.2-25.8-2.9-1.4-.7-.4-.7.2-1.5 1.2-1 .8-.1 25.9 2.9 25.1 3.3 24.3 3.6 23.7 4.1 22.8 4.5 22.2 4.8 21.6 5.2zm-5.8-43.2.7.2.9 1.3-.2 1.5-5.5 4-1.5-.2-.6-.6-.3-.7.2-1.5 4.8-3.6zm3.7 1.9.7-.4 1.5.2 3.9 4.4.5 1.5-.8 1.4-.7.3-1.5-.1-3.9-4.5-.4-1.4zM684 264.7l.5.7v1.5l-1.1 1.1-9.7.2-.1 9.6-1.1 1.1H671l-1.1-1.1-.2-.7v-8.9l-9.6-.2-1.1-1.1v-1.5l.4-.7 1.4-.5h8.9l.2-9.7 1.1-1.1.7-.1.8.1 1.1 1.1.1 9.7h8.9zm73.7 11.3 1.3-.9 4.3-1 1.3.7.4 1.5-.8 1.4-.7.3-4.3 1-1.4-.8-.3-.7zm-3.7-8.2.8-1.3 1.5-.3 1.3.8.3 1.5-1.3 6.1-1.2.9h-.8l-.7-.3-.9-1.3zm-8.2 2.2 6.4 5.1.2 1.5-1 1.2-1.5.2-.7-.4-6.3-5.1-.2-1.5.9-1.2 1.5-.2zm-9.3-52.2 1.9 2.3 1.3 2.5.8 2.6.3 2.9-.3 3-.8 2.7-1.3 2.5-1.9 2.3-2.3 1.9-2.5 1.3-2.6.8-2.9.3-3-.3-2.6-.8-2.5-1.3-2.3-1.9-2-2.3-1.3-2.5-.8-2.7-.3-3 .3-2.9.8-2.6 1.3-2.5 2-2.3 2.3-1.9 2.5-1.3 2.6-.8 3-.3 2.9.3 2.6.8 2.5 1.3zm-2.9 2.8-1.6-1.3-1.8-1-1.9-.6-2.1-.2-2.2.2-1.9.6-1.8 1-1.8 1.4-1.3 1.6-1 1.8-.6 1.9-.2 2.2.2 2.1.6 2 1 1.8 1.3 1.6 1.8 1.4 1.8 1 1.9.6 2.2.2 2.1-.2 1.9-.6 1.8-1 1.6-1.3 1.4-1.7 1-1.8.6-2 .2-2.1-.2-2.2-.6-1.9-1-1.8zm-48.1-39.1.5.6v1.6l-1.1 1.1-8.7.1-.1 8.7-1.1 1.1h-1.6l-1.1-1.1-.1-.8v-7.9l-8.6-.1-1.1-1.1v-1.6l.4-.6 1.4-.6h7.9l.1-8.7 1.1-1.1.8-.1.8.1 1.1 1.1.1 8.7h7.9zm-620.9 151-1.2 1-20.6 6.2-.7.1-1.4-.7-.5-1.4.2-.8 1.2-1 20.7-6.3h.8l1.3.7.4 1.5zm128.5-.5.1 1.5-.9 1.2-6 3.1-.7.3-1.5-.4-.7-1.4.1-.8 1-1.2 6.6-3.4 1.5.4zm-161.7 7.2 1.5.1 1 1.1v.8l-.7 1.4-8.3 2.9-.7.1-1.4-.6-.5-1.4.6-1.4zm156.5-21.3 1.5-.5 1.4.6 3.7 4.3.3.7v1.5l-1.2 1-1.5-.1-.7-.5-4-4.9v-1.5zm-28.3-49.4-1.8-1.4-2-.8-2.3-.3-2.2.3-2 .8-1.8 1.4-1.7 2.4-.6 1.7-.2 1.9.3 2.2.8 2 1.4 1.8 1.8 1.4 2 .8 2.3.3 2.2-.3 2-.8 1.8-1.4 1.4-1.8.8-2 .3-2.2-.8-3.6zm2.8-2.9 1.2 1.3 1.4 2.3.8 2.5.3 2.8-.2 2.5-.7 2.3-1.2 2.1-1.6 2-2 1.6-2.1 1.1-2.2.7-2.6.2-2.4-.2-2.3-.7-2.1-1.1-2-1.6-1.6-2-1.2-2.1-.7-2.3-.2-2.5.3-2.8.8-2.5 2.6-3.6 2-1.6 2.1-1.1 2.3-.7 2.4-.2 2.6.2 2.2.7 2.1 1.1zm-84.2 60.2 1.2-1 22.6-5.7 23.3-5.3 24.2-5 24.9-4.5 25.8-4 26.7-3.6 27.5-3.2 28.4-2.7.8.1 1.2 1 .1 1.5-1 1.2-.7.3-28.4 2.6-27.4 3.1-26.6 3.6-25.7 4.1-24.8 4.5-24.1 4.9L103 323l-22.5 5.7h-.8l-1.3-.7-.4-1.5zm2.3-35.3.6-.5h1.6l4.3 4.1.6 1.5-.6 1.4-.6.4h-1.6l-4.3-4.1-.6-1.4zm5.6-11.1-.6 1.4-3.5 3.3-1.5.1-1.1-1.1-.1-1.5.5-.7 3.4-3.3h1.6l1.1 1zm-13.7 9.7.7.1 1.1 1.1.1 1.5-4.9 4.9h-1.5l-.6-.4-.5-.7v-1.5l4.2-4.4zm-4.2-13 1.4.6 3.3 3.6v1.5l-1.1 1.1h-1.5l-.7-.4-3.3-3.7v-1.5l1.1-1.1zm47.7-69.1.6-.4h1.6l1.1 1.1.1 11.1 11.1.2 1.1 1.1v1.5l-.5.7-1.4.5h-10.3v10.4l-.6 1.4-1.4.6-1.4-.6-.6-1.4v-10.3H105l-1.5-.6-.4-.7v-1.5l1.1-1.1 11.1-.1v-10.4zm56.4-36.8-.5-.7V168l1.1-1.1 8.7-.1.1-8.7 1.1-1.1h1.5l1.1 1.1.2.8v7.9l8.6.1 1.1 1.1v1.5l-.4.7-1.4.6h-7.9l-.2 8.6-1.1 1.1-.8.1-.7-.1-1.1-1.1-.1-8.6h-7.9zm494-98.1-.9-.8-.4-1.1v-1.1l.5-1.1 14.6-21.6.8-.8 1.1-.4h1.2l1.1.4.8.8.4 1.1v1.2l-.4 1.1-14.7 21.5-.8.9-1.1.4h-1.1zm-6.3 5.2 1.2-.1 1.1.5.8.8.5 1.1v1.2l-3.7 5.8-.8.9-1.1.4h-1.2l-1-.4-.9-.9-.4-1-.1-1.2 3.7-5.9.8-.8zM465.2 36.5l.4 1.1v1.2l-5.1 21.5-.5 1-.9.8-1.1.4h-1.2l-1-.5-.8-.9-.4-1.1v-1.1l5.1-21.5.5-1.1.9-.8 1.1-.4h1.1l1.1.5zm14.2 36.6L499.3 60l1.1-.5h1.1l1.1.5.8.8.5 1.1v1.2l-.5 1-.8.9-19.9 13.1-1.1.4h-1.1l-1.1-.5-.8-.8-.5-1.1V75l.5-1.1zm11.3-35.9 1.2.1 1 .5.8.9.3 1.1-.1 1.2-.5 1L474 67l-.9.7-1.1.4-1.2-.1-1-.5-.8-.9-.4-1.1.1-1.2.6-1 19.4-25 .9-.8zM216.2 57.7l.7-.9 1.1-.5 1.1-.1 1.1.4.9.8.6 1 .5 3-.4 1.1-.8.9-1 .5-1.2.1-1.1-.4-.9-.8-.5-1-.5-3zM241 20.8l-4.8-1.1-4.9-.6-5.3-.1-5.5.3-5.8.9-6.2 1.4-6 1.8-5.5 2.2-5 2.5-4.5 2.7-4.1 3-3.7 3.4-3.1 3.6-2.3 3.4-1.4 3.3-.8 3.1-.1 3.1.4 3 1.1 2.9 1.7 2.5 2.2 2.3 2.9 2.1 3.7 1.8 4.5 1.6 4.8 1 5.1.6 5.3.1 5.5-.3 5.8-.9 6.2-1.4 15-5.3 12.4 4.4-2.5-9v-1.7l.9-1.4 2.9-2.5 3.2-3.7 2.2-3.4 1.5-3.3.8-3.1.2-3-.4-3.1-1.2-2.8-1.7-2.6-2.2-2.3-2.9-2.1-3.7-1.8zm1.6-5.8 5.1 1.6 4.3 2 3.4 2.2 2.8 2.5 2.2 2.7 1.6 3 1.2 3.4.6 3.4.1 3.4-.5 3.5-1.2 3.5-1.9 3.7-2.6 3.8-5.3 5.6 3.5 12.9.1 1-1 2-2 .8-1-.2-15.8-5.8-13.4 4.8-6.8 1.5-6.4 1-6 .3-5.8-.1-5.6-.7-5.3-1.1-5.1-1.7-4.1-2-3.4-2.2-2.8-2.5-2.1-2.7-1.7-3-1.1-3.3-.7-3.5-.1-3.4.5-3.5 1.2-3.5 1.8-3.6 2.6-3.9 3.5-3.9 4.1-3.7 4.5-3.4 4.9-3 5.4-2.7 6-2.4 6.6-2 6.8-1.6 6.4-.9 6.1-.4 5.7.2 5.5.7zm-23.8 13.4 2 1.3 1.6 1.6 1.1 1.9.8 2.1.4 2.3-.1 2.2-.5 2.2-1.1 2.2-2.3 2.9-1.8 1.2.8 3.2.1 1.1-.4 1.2-.7.8-1.1.6h-1.2l-1.1-.4-.8-.7-.6-1.1-1.6-6.5.1-.7.9-1.4 2.8-1.3 1.8-2 .8-2.8-.7-2.7-.9-1.1-1.3-.9-2.7-.8-1.4.2-2.4 1.4-1 1.1-.4 1.3-.2 1.4.6 4-.5 1.1-.8.8-1.1.5h-1.2l-1-.5-.9-.8-1.1-4.3v-2.2l.5-2.1.9-2.1 1.4-1.9 1.6-1.6L208 28l2.2-.8 2.2-.4 2.2.1 2.1.5z"/><path fill="url(#a)" fill-rule="evenodd" d="m259.8 251.8 17.7-1.2-2.6-37.4zm71.9 16.8.9-.7 1.2-.3 1.1.1 1 .7.8.9 1 11.8-.1 1.2-.6 1-1 .7-1.1.3-13 .9.4 5.3-.2 1.2-.6 1-.9.7-1.2.3-1.1-.1-1-.6-.8-1-.8-9.4.2-1.1.6-1 .9-.7 1.1-.3 13-1-.5-7.7.1-1.2zm-52.5-71 .8 1.8 3.8 53.8-.2 1.1-.6 1-.9.8-1.1.3-25.6 1.8-1.8-.6-1.2-1.6.1-2 21.7-55.5.5-.8 1.7-1 2 .3zm183.4 66.5.9-.7 1.2-.2 1.1.2 1 .7.6.9.3 1.2-.1 3.6-.7 4.4-1.1 4.3-1.7 4.1-2.2 3.9-2.7 3.9-.9.7-1.1.4-1.2-.1-1-.5-.8-.9-.3-1.1.1-1.2 4.6-7.7 1.4-3.4 1-3.6.9-8zm-38.1-119.5-.7-3.4-2.1-2.9-3.2-2.1-3.8-.6-3.8.6-3.1 2.1-2.1 2.9-.7 3.4v116.7l.7 3.4 2.1 2.9 3.1 2 3.8.7 3.8-.7 3.2-2 2.1-2.9.7-3.4zm1.3-10.7 2.1 2.4 1.4 2.5.9 2.8.3 3v116.7l-.3 3-.9 2.8-1.4 2.5-2.1 2.4-2.5 1.9-2.6 1.3-2.8.8-3.2.3-3.1-.3-2.9-.8-2.6-1.3-2.4-1.9-2.1-2.4-1.4-2.5-.9-2.8-.3-3V144.6l.3-3 .9-2.8 1.4-2.5 2.1-2.4 2.4-1.9 2.6-1.4 2.8-.8 3.2-.2 3.2.2 2.8.8 2.6 1.4zm161 161.7.6-8.3.3-1.1.8-.9 1-.6 1.1-.2 13 1 .6-7.7.3-1.2.7-.9 1-.6 1.2-.1 1.1.3.9.7.6 1.1.2 1.1-.8 10.7-.3 1.2-.7.9-1.1.6-1.1.1-13-.9-.7 6.4-.7.9-1.1.6-1.1.2-1.2-.4-.9-.7-.6-1zm-50.5-46.5 17.8 1.2 2.5-37.4zm21.6-50.8 1.5-1.3 2-.1 1.6 1.2.6 1.9-3.7 53.7-.3 1.2-.8.9-1 .6-1.1.1-25.5-1.8-1.9-.8-.9-1.7.3-1.9zm7.3-85.3 2.1-3.1 2.3-2.5 2.5-1.9 2.8-1.4 3-.9 3.5-.4 3.8.1 4.4.7 4.3 1.5 3.3 1.8 2.6 1.9 2.1 2.2 1.5 2.5 1 2.8.5 3.1v3.6l-9.1 130.3 13 .9 1.1.3 1 .7.6 1 .1 1.2-.8 7.7-.7.9-1.1.6-1.1.2-1.2-.4-.9-.7-.6-1-.1-1.2.3-3.5-13-.9-1.1-.3-1-.8-.6-1-.1-1.1 9.2-133.3v-2.8l-.6-2.3-1-2.1-1.4-1.8-1.9-1.6-2.6-1.4-3.2-1.2-3.5-.5h-3.1l-2.8.5-2.4.9-2.2 1.4-1.9 1.9-1.8 2.4-71.1 126.5-.9 2.3-.4 2.3-1.2 20.2 1.1 3.7 2.4 3.4 2.3 1.8 2.6 1.4 2.7.9 2.8.5 44.2 3.1 1.1.3.9.8.6 1 .2 1.1-1.5 20.4 29.7 2.1.5-3.8.7-.9 1-.6 1.2-.1 1.1.3.9.7.6 1-.2 6.8-.3 1.2-.7.9-1.1.6-1.1.1-35.8-2.5-1.1-.4-.9-.7-.6-1-.2-1.2 1.5-20.3-41.1-2.9-3.1-.5-3-.8-2.8-1.2-2.7-1.7-2.6-2.1-2.2-2.6-1.5-2.5-1.5-4.6-.1-4.3 1.2-18 1-4.7 1.1-2.3zm-187.6-4.3 4.6-3.5 4.7-2.9 5-2.4 5.3-1.9 5.5-1.3 5.8-.8 6.2-.3 6.3.3 5.8.8 5.5 1.4 5.3 1.8 4.9 2.4 4.8 2.9 4.6 3.5 3.8 3.5 3.3 3.7 2.7 3.7 2.2 3.8 1.6 4 1.2 4.1.7 4.2.3 4.5v115.1l-.3 1.1-.6 1-1 .6-1.1.3-1.2-.3-.9-.6-.7-1-.2-1.1V140.2l-.3-4.3-.9-4.2-1.3-3.9-1.9-3.8-2.4-3.7-3.1-3.6-3.8-3.4-4.1-3.1-4.2-2.6-4.5-2.1-4.7-1.7-4.9-1.2-5.3-.7-5.5-.3-5.6.3-5.3.7-4.9 1.2-4.7 1.7-4.5 2.1-4.3 2.6-4 3.1-3.8 3.4-3.1 3.6-2.4 3.7-1.9 3.8-1.3 3.9-.9 4.2-.2 4.3v126l.6 6.8 1 3.6 1.4 3.4 1.8 3.4 2.3 3.3 2.9 3.2 3.5 3.3 3.3 2.4 4.3 2.6 4.6 2.1 4.8 1.7 5.1 1.2 5.5.8 5.7.2 5.8-.3 5.5-.7 5.1-1.2 4.9-1.7 4.5-2.1 5.5-3.1h1.2l1 .4.8.9.5 1v1.2l-.4 1.1-.9.8-4.8 2.9-5.1 2.4-5.4 1.9-5.7 1.4-6 .8-6.5.3-6.4-.3-6-.8-5.7-1.4-5.4-1.9-5.1-2.4-4.8-2.9-3.8-2.7-3.9-3.7-3.3-3.7-2.7-3.9-2.2-3.9-1.7-4.1-1.1-4.3-.8-8v-126l.3-4.5.7-4.2 1.2-4.1 1.6-4 2.2-3.8 2.7-3.7 3.2-3.7zm-108.1 4.4 1.6-3.4 1.9-2.7 2.2-2.3 2.6-1.8 2.9-1.3 3.3-.9 3.9-.4 4.5.1 4.4.9 3.5 1.2 2.9 1.6 2.3 1.9 1.8 2.3 1.4 2.6 1 3 .4 3.6 9.2 130.2 13-.9 1.1.1 1.1.6.7.9.3 1.2.3 7.8-.6 1-.9.7-1.2.3-1.1-.1-1.1-.6-.7-1-.3-1.1-.2-3.6-13 .9-1.1-.1-1.1-.6-.7-1-.3-1.1-9.4-133.3-.4-2.6-.9-2.3-1.2-1.8-1.7-1.6-2.1-1.4-2.7-1-3.3-.7-3.7-.1-3.1.4-2.6.9-2.3 1.3-2 1.6-1.7 2.2-1.4 2.6-52.7 135.1-.6 2.4-.1 2.4 1.6 20.2 1.6 3.5 2.9 3.1 2.6 1.5 2.7.9 2.8.6h2.9l44-3 1.2.1 1 .6.7.9.3 1.2 1.4 20.4 29.8-2.2-.1-3.7.6-1.1.9-.7 1.2-.3 1.1.1 1 .6.8.9.3 1.2.3 6.8-.6 1-1 .7-1.1.3-35.8 2.5-1.1-.1-1-.6-.8-.9-.3-1.2-1.4-20.4-41 2.9h-3.2l-3.1-.4-2.9-.8-2.9-1.3-3.1-1.8-2.3-2.2-1.9-2.3-1.3-2.4-1-2.9-.5-3.2-1.3-18.1.3-4.7.7-2.5z"/></svg>